<?xml version="1.0" standalone="no"?>
<!DOCTYPE svg PUBLIC "-//W3C//DTD SVG 1.1//EN" "http://www.w3.org/Graphics/SVG/1.1/DTD/svg11.dtd">
<svg width="122" height="20" version="1.1" xmlns="http://www.w3.org/2000/svg">
	<desc>ABC_ABC_AB_CYCGFF__</desc>
	<g id="bars" fill="black" stroke="none">
		<rect x="0" y="0" width="1" height="20" />
		<rect x="1.5" y="0" width="0.5" height="20" />
		<rect x="3" y="0" width="0.5" height="20" />
		<rect x="5.5" y="0" width="0.5" height="20" />
		<rect x="6.5" y="0" width="0.5" height="20" />
		<rect x="8.5" y="0" width="1" height="20" />
		<rect x="11" y="0" width="0.5" height="20" />
		<rect x="13" y="0" width="0.5" height="20" />
		<rect x="14" y="0" width="1" height="20" />
		<rect x="16.5" y="0" width="0.5" height="20" />
		<rect x="18.5" y="0" width="0.5" height="20" />
		<rect x="20.5" y="0" width="1" height="20" />
		<rect x="22" y="0" width="0.5" height="20" />
		<rect x="23" y="0" width="0.5" height="20" />
		<rect x="24.5" y="0" width="1" height="20" />
		<rect x="27.5" y="0" width="0.5" height="20" />
		<rect x="28.5" y="0" width="0.5" height="20" />
		<rect x="30.5" y="0" width="1" height="20" />
		<rect x="33" y="0" width="0.5" height="20" />
		<rect x="35" y="0" width="0.5" height="20" />
		<rect x="36" y="0" width="1" height="20" />
		<rect x="38.5" y="0" width="0.5" height="20" />
		<rect x="40.5" y="0" width="0.5" height="20" />
		<rect x="42.5" y="0" width="1" height="20" />
		<rect x="44" y="0" width="0.5" height="20" />
		<rect x="45" y="0" width="0.5" height="20" />
		<rect x="46.5" y="0" width="1" height="20" />
		<rect x="49.5" y="0" width="0.5" height="20" />
		<rect x="50.5" y="0" width="0.5" height="20" />
		<rect x="52.5" y="0" width="1" height="20" />
		<rect x="55" y="0" width="0.5" height="20" />
		<rect x="57" y="0" width="0.5" height="20" />
		<rect x="58" y="0" width="1" height="20" />
		<rect x="60.5" y="0" width="0.5" height="20" />
		<rect x="61.5" y="0" width="0.5" height="20" />
		<rect x="63" y="0" width="1" height="20" />
		<rect x="66" y="0" width="0.5" height="20" />
		<rect x="68" y="0" width="0.5" height="20" />
		<rect x="70" y="0" width="1" height="20" />
		<rect x="71.5" y="0" width="1.5" height="20" />
		<rect x="73.5" y="0" width="1" height="20" />
		<rect x="75" y="0" width="0.5" height="20" />
		<rect x="77" y="0" width="0.5" height="20" />
		<rect x="79" y="0" width="0.5" height="20" />
		<rect x="81" y="0" width="1" height="20" />
		<rect x="82.5" y="0" width="1" height="20" />
		<rect x="84" y="0" width="0.5" height="20" />
		<rect x="86" y="0" width="0.5" height="20" />
		<rect x="88" y="0" width="0.5" height="20" />
		<rect x="90" y="0" width="1" height="20" />
		<rect x="92.5" y="0" width="0.5" height="20" />
		<rect x="93.5" y="0" width="0.5" height="20" />
		<rect x="95.5" y="0" width="1" height="20" />
		<rect x="98" y="0" width="0.5" height="20" />
		<rect x="99" y="0" width="0.5" height="20" />
		<rect x="100" y="0" width="0.5" height="20" />
		<rect x="101.5" y="0" width="1" height="20" />
		<rect x="104.5" y="0" width="0.5" height="20" />
		<rect x="105.5" y="0" width="0.5" height="20" />
		<rect x="107" y="0" width="1" height="20" />
		<rect x="110" y="0" width="1" height="20" />
		<rect x="112" y="0" width="0.5" height="20" />
		<rect x="113" y="0" width="0.5" height="20" />
		<rect x="115.5" y="0" width="1" height="20" />
		<rect x="118" y="0" width="1.5" height="20" />
		<rect x="120" y="0" width="0.5" height="20" />
		<rect x="121" y="0" width="1" height="20" />
		<rect x="122" y="0" width="0" height="20" />
		<rect x="122" y="0" width="0" height="20" />
	</g>
</svg>
